<svg width="36" height="36" viewBox="0 0 36 36" fill="none" xmlns="http://www.w3.org/2000/svg">
<g clip-path="url(#clip0_196_1952)">
<path d="M3.375 20.8125V34.3125H32.625V13.5L18 1.125L3.375 12.9375V20.8125Z" fill="white"/>
<path opacity="0.1" d="M18.0003 1.125L16.2734 2.52L29.2503 13.5V34.3125H32.6253V13.5L18.0003 1.125Z" fill="black"/>
<path d="M14.625 19.125H21.375C21.9717 19.125 22.544 19.3621 22.966 19.784C23.3879 20.206 23.625 20.7783 23.625 21.375V34.875H12.375V21.375C12.375 20.7783 12.6121 20.206 13.034 19.784C13.456 19.3621 14.0283 19.125 14.625 19.125Z" fill="#F78C8C"/>
<path opacity="0.1" d="M21.375 19.125H18C18.5967 19.125 19.169 19.3621 19.591 19.784C20.0129 20.206 20.25 20.7783 20.25 21.375V34.875H23.625V21.375C23.625 20.7783 23.3879 20.206 22.966 19.784C22.544 19.3621 21.9717 19.125 21.375 19.125Z" fill="black"/>
<path d="M16.875 28.125C17.4963 28.125 18 27.6213 18 27C18 26.3787 17.4963 25.875 16.875 25.875C16.2537 25.875 15.75 26.3787 15.75 27C15.75 27.6213 16.2537 28.125 16.875 28.125Z" fill="white"/>
<path d="M35.5945 13.7577L29.812 8.94267V5.06142C29.812 4.76305 29.6934 4.47691 29.4825 4.26593C29.2715 4.05495 28.9853 3.93642 28.687 3.93642C28.3886 3.93642 28.1024 4.05495 27.8915 4.26593C27.6805 4.47691 27.562 4.76305 27.562 5.06142V7.06392L20.1595 0.898922C19.553 0.393797 18.7887 0.117187 17.9995 0.117188C17.2102 0.117187 16.4459 0.393797 15.8395 0.898922L0.404455 13.7577C0.174712 13.9486 0.0302345 14.223 0.00280732 14.5205C-0.0246199 14.818 0.0672496 15.1142 0.258205 15.3439C0.449161 15.5737 0.723561 15.7181 1.02104 15.7456C1.31852 15.773 1.61471 15.6811 1.84446 15.4902L17.2795 2.6258C17.4816 2.45742 17.7364 2.36522 17.9995 2.36522C18.2625 2.36522 18.5173 2.45742 18.7195 2.6258L31.4995 13.2739V32.6239C31.4995 32.9223 31.3809 33.2084 31.17 33.4194C30.959 33.6304 30.6728 33.7489 30.3745 33.7489H24.7495V21.3739C24.7495 20.4788 24.3939 19.6204 23.7609 18.9874C23.128 18.3545 22.2696 17.9989 21.3745 17.9989H14.6245C13.7293 17.9989 12.8709 18.3545 12.238 18.9874C11.605 19.6204 11.2495 20.4788 11.2495 21.3739V33.7489H5.62446C5.32609 33.7489 5.03994 33.6304 4.82896 33.4194C4.61798 33.2084 4.49946 32.9223 4.49946 32.6239V19.1239C4.49946 18.8256 4.38093 18.5394 4.16995 18.3284C3.95897 18.1174 3.67282 17.9989 3.37446 17.9989C3.07609 17.9989 2.78994 18.1174 2.57896 18.3284C2.36798 18.5394 2.24946 18.8256 2.24946 19.1239V32.6239C2.24946 33.519 2.60504 34.3775 3.23797 35.0104C3.87091 35.6433 4.72935 35.9989 5.62446 35.9989H30.3745C31.2696 35.9989 32.128 35.6433 32.7609 35.0104C33.3939 34.3775 33.7495 33.519 33.7495 32.6239V15.1527L34.1545 15.4902C34.3569 15.6579 34.6116 15.7494 34.8745 15.7489C35.1061 15.7494 35.3323 15.6783 35.522 15.5454C35.7118 15.4125 35.8559 15.2243 35.9346 15.0065C36.0134 14.7886 36.023 14.5518 35.9621 14.3283C35.9012 14.1047 35.7728 13.9055 35.5945 13.7577V13.7577ZM13.4995 33.7489V21.3739C13.4995 21.0756 13.618 20.7894 13.829 20.5784C14.0399 20.3674 14.3261 20.2489 14.6245 20.2489H21.3745C21.6728 20.2489 21.959 20.3674 22.17 20.5784C22.3809 20.7894 22.4995 21.0756 22.4995 21.3739V33.7489H13.4995Z" fill="#333333"/>
</g>
<defs>
<clipPath id="clip0_196_1952">
<rect width="36" height="36" fill="white"/>
</clipPath>
</defs>
</svg>
